# AST/ASF file generated using VICON BodyLanguage
# -----------------------------------------------
:version 1.10
:name VICON
:units
  mass 1.0
  length 0.45
  angle deg
:documentation
   .ast/.asf automatically generated from VICON data using
   VICON BodyBuilder and BodyLanguage model FoxedUp or BRILLIANT.MOD
:root
   order TX TY TZ RX RY RZ
   axis XYZ
   position 0 0 0  
   orientation 0 0 0 
:bonedata
  begin
     id 1 
     name lhipjoint
     direction 0.623415 -0.642378 0.445763 
     length 2.49859 
     axis 0 0 0  XYZ
  end
  begin
     id 2 
     name lfemur
     direction 0.34202 -0.939693 0  
     length 6.69689  
     axis 0 0 20  XYZ
    dof rx ry rz
    limits (-160.0 20.0)
           (-70.0 70.0)
           (-60.0 70.0)
  end
  begin
     id 3 
     name ltibia
     direction 0.34202 -0.939693 0   
     length 7.37574   
     axis 0 0 20   XYZ
    dof rx
    limits (-10.0 170.0)
  end
  begin
     id 4 
     name lfoot
     direction 0.084323 -0.231675 0.969132   
     length 2.09111   
     axis -90 7.62852e-016 20   XYZ
    dof rx rz
    limits (-45.0 90.0)
           (-70.0 20.0)
  end
  begin
     id 5 
     name ltoes
     direction 1.5357e-011 -4.21957e-011 1   
     length 1.04989   
     axis -90 7.62852e-016 20   XYZ
    dof rx
    limits (-90.0 20.0)
  end
  begin
     id 6 
     name rhipjoint
     direction -0.605402 -0.653903 0.45376   
     length 2.45455  
     axis 0 0 0  XYZ 
  end
  begin
     id 7 
     name rfemur
     direction -0.34202 -0.939693 0   
     length 6.64523   
     axis 0 0 -20   XYZ
    dof rx ry rz
    limits (-160.0 20.0)
           (-70.0 70.0)
           (-70.0 60.0)
  end
  begin
     id 8 
     name rtibia
     direction -0.34202 -0.939693 0   
     length 7.3339   
     axis 0 0 -20   XYZ
    dof rx
    limits (-10.0 170.0)
 end
 begin
     id 9 
     name rfoot
     direction -0.120854 -0.332043 0.93549   
     length 2.23135  
     axis -90 -7.62852e-016 -20   XYZ
    dof rx rz
    limits (-45.0 90.0)
           (-20.0 70.0)
  end
  begin
     id 10 
     name rtoes
     direction -1.53563e-011 -4.21914e-011 1   
     length 1.10614   
     axis -90 -7.62852e-016 -20   XYZ
    dof rx
    limits (-90.0 20.0)
  end
  begin
     id 11 
     name lowerback
     direction 0.0319682 0.998615 -0.0417941   
     length 2.02718   
     axis 0 0 0   XYZ
    dof rx ry rz
    limits (-20.0 45.0)
           (-30.0 30.0)
           (-30.0 30.0)
  end
  begin
     id 12 
     name upperback
     direction 7.63181e-005 0.995808 0.0914691   
     length 1.97539   
     axis 0 0 0   XYZ
    dof rx ry rz
    limits (-20.0 45.0)
           (-30.0 30.0)
           (-30.0 30.0)
  end
  begin
     id 13 
     name thorax
     direction -0.016423 0.993627 0.111514   
     length 2.00349   
     axis 0 0 0   XYZ
    dof rx ry rz
    limits (-20.0 45.0)
           (-30.0 30.0)
           (-30.0 30.0)
  end
  begin
     id 14 
     name lowerneck
     direction -0.174763 0.981668 -0.0760716   
     length 1.71436   
     axis 0 0 0   XYZ
    dof rx ry rz
    limits (-20.0 45.0)
           (-30.0 30.0)
           (-30.0 30.0)
  end
  begin
     id 15 
     name upperneck
     direction 0.345458 0.934587 -0.0848868   
     length 1.72805   
     axis 0 0 0   XYZ
    dof rx ry rz
    limits (-20.0 45.0)
           (-30.0 30.0)
           (-30.0 30.0)
  end
  begin
     id 16
     name head
     direction 0.13001 0.989848 -0.0574291  
     length 1.767  
     axis 0 0 0   XYZ
    dof rx ry rz
    limits (-20.0 45.0)
           (-30.0 30.0)
           (-30.0 30.0)
  end
  begin
     id 17 
     name lclavicle
     direction 0.952951 0.290122 0.0878234  
     length 3.54654  
     axis 0 0 0   XYZ
    dof ry rz
    limits (-20.0 10.0)
           (0.0 20.0)
  end
  begin
     id 18 
     name lhumerus
     direction 1 -4.48957e-011 -4.56525e-028   
     length 5.19807   
     axis 180 -30 -90   XYZ
    dof rx ry rz
    limits (-60.0 90.0)
           (-90.0 90.0)
           (-90.0 90.0)
  end
  begin
     id 19
     name lradius
     direction 1 -4.48979e-011 -2.0317e-027   
     length 3.0937   
     axis 180 -30 -90   XYZ
    dof rx
    limits (-10.0 170.0)
  end
  begin
     id 20
     name lwrist
     direction 1 -4.48953e-011 -3.05809e-027   
     length 1.54685   
     axis 8.48514e-016 90 90   XYZ
    dof ry
    limits (-180.0 0.0)
 end
  begin
     id 21 
     name lhand
     direction 1 -4.48952e-011 -6.11639e-027   
     length 0.672632   
     axis 3.9013e-015 90 90   XYZ
    dof rx rz
    limits (-90.0 90.0)
           (-45.0 45.0)
  end
  begin
     id 22 
     name lfingers
     direction 1 -4.48925e-011 -1.22426e-026   
     length 0.542293   
     axis 7.80276e-015 90 90   XYZ
    dof rx
    limits (0.0 90.0)
  end
  begin
     id 23
     name lthumb
     direction 0.707107 -6.3486e-011 0.707107   
     length 0.778628   
     axis -90 45 5.37419e-014   XYZ
    dof rx rz
    limits (-45.0 45.0)
           (-45.0 45.0)
  end
  begin
     id 24 
     name rclavicle
     direction -0.960732 0.273675 -0.0457849   
     length 3.52079  
     axis 0 0 0   XYZ 
    dof ry rz
    limits (-10.0 20.0)
           (-20.0 0.0)
  end
  begin
     id 25 
     name rhumerus
     direction -1 -4.48976e-011 -1.63613e-027  
     length 5.45222   
     axis 180 30 90   XYZ
    dof rx ry rz
    limits (-90.0 60.0)
           (-90.0 90.0)
           (-90.0 90.0)
  end
  begin
     id 26 
     name rradius
     direction -1 -4.48957e-011 -7.00033e-028   
     length 3.01284   
     axis 180 30 90   XYZ
    dof rx
    limits (-10.0 170.0)
  end
  begin
     id 27 
     name rwrist
     direction -1 -4.48983e-011 -3.05543e-027   
     length 1.50642   
     axis 8.48514e-016 -90 -90   XYZ
    dof ry
    limits (-180.0 0.0)
  end
  begin
     id 28
     name rhand
     direction -1 -4.48984e-011 -6.11072e-027   
     length 0.622296   
     axis 3.9013e-015 -90 -90   XYZ
    dof rx rz
    limits (-90.0 90.0)
           (-45.0 45.0)
  end
  begin
     id 29
     name rfingers
     direction -1 -4.48865e-011 -1.22637e-026   
     length 0.501711   
     axis 7.80276e-015 -90 -90   XYZ
    dof rx
    limits (0.0 90.0)
  end
  begin
     id 30
     name rthumb
     direction -0.707107 -6.34932e-011 0.707107   
     length 0.72036   
     axis -90 -45 -5.37419e-014   XYZ
    dof rx rz
    limits (-45.0 45.0)
           (-45.0 45.0)
  end
:hierarchy
  begin
    root lhipjoint rhipjoint lowerback
    lhipjoint lfemur
    lfemur ltibia
    ltibia lfoot
    lfoot ltoes
    rhipjoint rfemur
    rfemur rtibia
    rtibia rfoot
    rfoot rtoes
    lowerback upperback
    upperback thorax
    thorax lowerneck lclavicle rclavicle
    lowerneck upperneck
    upperneck head
    lclavicle lhumerus
    lhumerus lradius
    lradius lwrist
    lwrist lhand lthumb
    lhand lfingers
    rclavicle rhumerus
    rhumerus rradius
    rradius rwrist
    rwrist rhand rthumb
    rhand rfingers
  end

#!OML:ASF H:\Not Pregnant\Project 1\Capture day 1\Session 1\non-pregnant.ASF
:FULLY-SPECIFIED
:DEGREES
1450
root 5.74778 7.87973 17.1016 49.0993 7.30296 -3.32907
lowerback 20.5691 -1.25774 5.60505
upperback -4.95602 0.649057 4.80631
thorax -17.5494 0.0765084 2.22084
lowerneck -7.40463 -16.6208 -25.1019
upperneck -44.926 -13.4328 52.7788
head -2.59546 -9.6837 29.7823
rclavicle -1.19271e-014 6.55989e-015
rhumerus 15.6068 50.8218 -61.7244
rradius 31.6432
rwrist 24.1468
rhand -43.9221 -7.24249
rfingers 7.12502
rthumb -16.7462 -36.5403
lclavicle -1.19271e-014 6.55989e-015
lhumerus -1.69091 -28.4649 89.5844
lradius 21.8814
lwrist 4.62354
lhand -43.5464 -53.8314
lfingers 7.12502
lthumb -16.3845 -24.5034
rfemur -154.835 7.61714 38.0199
rtibia 116.447
rfoot -6.09303 8.20314
rtoes 1.82367
lfemur 28.165 -12.3242 -18.7825
ltibia -2.54444e-014
lfoot -9.77347 -1.67633
ltoes -22.8484
1451
root 5.74804 7.87791 17.1012 49.1151 7.30697 -3.33195
lowerback 20.5319 -1.24892 5.61094
upperback -4.96039 0.658511 4.8016
thorax -17.5313 0.0796511 2.20757
lowerneck -7.37663 -16.6234 -25.1255
upperneck -44.9303 -13.4424 52.7639
head -2.59817 -9.68518 29.7728
rclavicle -6.36111e-015 -7.95139e-016
rhumerus 15.5819 50.8149 -61.7186
rradius 31.66
rwrist 24.1223
rhand -43.909 -7.22297
rfingers 7.12502
rthumb -16.7336 -36.5218
lclavicle -6.36111e-015 -7.95139e-016
lhumerus -1.71007 -28.4945 89.593
lradius 21.9143
lwrist 4.62483
lhand -43.5382 -53.8499
lfingers 7.12502
lthumb -16.3766 -24.5213
rfemur -154.865 7.62705 38.0189
rtibia 116.457
rfoot -6.08467 8.19526
rtoes 1.81123
lfemur 28.1454 -12.3319 -18.7601
ltibia 4.45278e-014
lfoot -9.72247 -1.77127
ltoes -22.9068
1452
root 5.74873 7.87546 17.1006 49.1161 7.31442 -3.33363
lowerback 20.5039 -1.2431 5.625
upperback -4.9597 0.666526 4.79606
thorax -17.5127 0.0812685 2.18923
lowerneck -7.34467 -16.6229 -25.1523
upperneck -44.936 -13.4491 52.748
head -2.60365 -9.6846 29.7698
rclavicle 1.27222e-014 1.43125e-014
rhumerus 15.5602 50.8085 -61.7098
rradius 31.6771
rwrist 24.0946
rhand -43.8995 -7.20645
rfingers 7.12502
rthumb -16.7244 -36.506
lclavicle 1.27222e-014 1.43125e-014
lhumerus -1.72724 -28.5207 89.6014
lradius 21.9447
lwrist 4.62089
lhand -43.5295 -53.8719
lfingers 7.12502
lthumb -16.3682 -24.5425
rfemur -154.89 7.62716 38.022
rtibia 116.473
rfoot -6.07618 8.19064
rtoes 1.79504
lfemur 28.1428 -12.3425 -18.7407
ltibia 4.45278e-014
lfoot -9.67402 -1.86917
ltoes -23.0106
1453
root 5.75006 7.87209 17.0997 49.0957 7.32532 -3.33351
lowerback 20.4891 -1.24071 5.65002
upperback -4.95148 0.673316 4.78874
thorax -17.4928 0.0811 2.16297
lowerneck -7.31157 -16.6226 -25.1813
upperneck -44.9417 -13.4563 52.7316
head -2.60891 -9.68401 29.7668
rclavicle -1.70955e-014 -3.73715e-014
rhumerus 15.5423 50.8019 -61.6959
rradius 31.6943
rwrist 24.0635
rhand -43.8922 -7.18944
rfingers 7.12502
rthumb -16.7174 -36.4896
lclavicle -1.70955e-014 -3.73715e-014
lhumerus -1.73962 -28.5433 89.6094
lradius 21.9722
lwrist 4.61361
lhand -43.5161 -53.8924
lfingers 7.12502
lthumb -16.3553 -24.562
rfemur -154.909 7.61323 38.0298
rtibia 116.501
rfoot -6.06842 8.18992
rtoes 1.7834
lfemur 28.1661 -12.3562 -18.7275
ltibia -5.56597e-014
lfoot -9.62793 -1.97257
ltoes -23.1322
1454
root 5.75213 7.86771 17.0986 49.0515 7.33556 -3.33081
lowerback 20.4914 -1.24157 5.68141
upperback -4.93541 0.678199 4.77953
thorax -17.4737 0.0793295 2.13163
lowerneck -7.28143 -16.6213 -25.2121
upperneck -44.9428 -13.4623 52.7139
head -2.61275 -9.68188 29.7624
rclavicle 1.19271e-015 -3.1408e-014
rhumerus 15.5305 50.7995 -61.6743
rradius 31.7123
rwrist 24.0268
rhand -43.8939 -7.173
rfingers 7.12502
rthumb -16.719 -36.4731
lclavicle 1.19271e-015 -3.1408e-014
lhumerus -1.75086 -28.5651 89.6186
lradius 21.9939
lwrist 4.58896
lhand -43.5255 -53.9308
lfingers 7.12502
lthumb -16.3643 -24.6011
rfemur -154.919 7.58602 38.0406
rtibia 116.541
rfoot -6.06019 8.19364
rtoes 1.77278
lfemur 28.2192 -12.371 -18.7247
ltibia -9.54166e-015
lfoot -9.58427 -2.08816
ltoes -23.2211
1455
root 5.75476 7.86243 17.0975 48.9914 7.34334 -3.32814
lowerback 20.5027 -1.24338 5.71703
upperback -4.91449 0.683228 4.76882
thorax -17.4541 0.0771056 2.09607
lowerneck -7.25439 -16.6211 -25.2464
upperneck -44.9356 -13.4702 52.6967
head -2.61127 -9.68012 29.7531
rclavicle 1.90833e-014 -1.63003e-014
rhumerus 15.5208 50.7993 -61.6487
rradius 31.7303
rwrist 23.9932
rhand -43.893 -7.16062
rfingers 7.12502
rthumb -16.7181 -36.4607
lclavicle 1.90833e-014 -1.63003e-014
lhumerus -1.76261 -28.588 89.6297
lradius 22.0132
lwrist 4.5599
lhand -43.5391 -53.9664
lfingers 7.12502
lthumb -16.3775 -24.6378
rfemur -154.924 7.55236 38.0533
rtibia 116.591
rfoot -6.05163 8.20026
rtoes 1.76131
lfemur 28.2929 -12.3834 -18.7303
ltibia 6.52014e-014
lfoot -9.54499 -2.2064
ltoes -23.3255
1456
root 5.75748 7.85668 17.0963 48.93 7.35255 -3.32604
lowerback 20.5116 -1.24593 5.75431
upperback -4.89444 0.68775 4.75939
thorax -17.4342 0.0745999 2.06126
lowerneck -7.23194 -16.6207 -25.2856
upperneck -44.9167 -13.4789 52.6799
head -2.6035 -9.67755 29.7395
rclavicle 3.57812e-015 5.96354e-015
rhumerus 15.514 50.8073 -61.6165
rradius 31.7499
rwrist 23.9603
rhand -43.8916 -7.14599
rfingers 7.12502
rthumb -16.7168 -36.4462
lclavicle 3.57812e-015 5.96354e-015
lhumerus -1.77678 -28.6089 89.6437
lradius 22.0311
lwrist 4.52567
lhand -43.5587 -53.999
lfingers 7.12502
lthumb -16.3963 -24.672
rfemur -154.932 7.51829 38.0673
rtibia 116.645
rfoot -6.04308 8.20524
rtoes 1.75522
lfemur 28.3699 -12.396 -18.7355
ltibia 1.90833e-014
lfoot -9.50971 -2.32323
ltoes -23.4699
